<mxfile host="65bd71144e">
    <diagram id="aZC29gAntfsDg5aTyT4Q" name="Page-1">
        <mxGraphModel dx="847" dy="498" grid="1" gridSize="10" guides="1" tooltips="1" connect="1" arrows="1" fold="1" page="1" pageScale="1" pageWidth="827" pageHeight="1169" math="0" shadow="0">
            <root>
                <mxCell id="0"/>
                <mxCell id="1" parent="0"/>
                <mxCell id="7" value="&lt;font style=&quot;&quot; color=&quot;#000000&quot;&gt;Postar código&lt;/font&gt;" style="swimlane;whiteSpace=wrap;html=1;rotation=270;startSize=20;labelBackgroundColor=none;swimlaneFillColor=default;fillColor=default;" vertex="1" parent="1">
                    <mxGeometry x="175.75" y="11.75" width="323.5" height="586.5" as="geometry">
                        <mxRectangle x="-125.00000000000003" y="365" width="140" height="30" as="alternateBounds"/>
                    </mxGeometry>
                </mxCell>
                <mxCell id="11" value="&lt;span style=&quot;font-family: Helvetica; font-size: 10px; font-style: normal; font-variant-ligatures: normal; font-variant-caps: normal; font-weight: 700; letter-spacing: normal; orphans: 2; text-align: center; text-indent: 0px; text-transform: none; widows: 2; word-spacing: 0px; -webkit-text-stroke-width: 0px; text-decoration-thickness: initial; text-decoration-style: initial; text-decoration-color: initial; float: none; display: inline !important;&quot;&gt;cliente&lt;br style=&quot;font-size: 10px;&quot;&gt;&lt;/span&gt;" style="text;whiteSpace=wrap;html=1;rotation=270;fontSize=10;labelBackgroundColor=none;fillColor=none;" vertex="1" parent="7">
                    <mxGeometry x="-135.75" y="195.5" width="65" height="20" as="geometry"/>
                </mxCell>
                <mxCell id="17" value="&lt;span style=&quot;font-family: Helvetica; font-size: 10px; font-style: normal; font-variant-ligatures: normal; font-variant-caps: normal; font-weight: 700; letter-spacing: normal; orphans: 2; text-align: center; text-indent: 0px; text-transform: none; widows: 2; word-spacing: 0px; -webkit-text-stroke-width: 0px; text-decoration-thickness: initial; text-decoration-style: initial; text-decoration-color: initial; float: none; display: inline !important;&quot;&gt;aplicação&lt;br style=&quot;font-size: 10px;&quot;&gt;&lt;/span&gt;" style="text;whiteSpace=wrap;html=1;rotation=270;fontSize=10;labelBackgroundColor=none;fillColor=none;" vertex="1" parent="7">
                    <mxGeometry x="-135.75" y="348.5" width="65" height="20" as="geometry"/>
                </mxCell>
                <mxCell id="9" value="" style="endArrow=none;html=1;" edge="1" parent="7">
                    <mxGeometry width="50" height="50" relative="1" as="geometry">
                        <mxPoint x="-85.75" y="455.25" as="sourcePoint"/>
                        <mxPoint x="-85.75" y="131.25" as="targetPoint"/>
                    </mxGeometry>
                </mxCell>
                <mxCell id="25" value="" style="edgeStyle=none;html=1;fontSize=6;" edge="1" parent="7" source="18" target="20">
                    <mxGeometry relative="1" as="geometry">
                        <Array as="points">
                            <mxPoint x="-30.25" y="269"/>
                        </Array>
                    </mxGeometry>
                </mxCell>
                <mxCell id="18" value="Solicita login" style="text;html=1;align=center;verticalAlign=middle;whiteSpace=wrap;rounded=1;fontSize=7;strokeColor=#000000;labelBorderColor=none;" vertex="1" parent="7">
                    <mxGeometry x="-56.25" y="229" width="51" height="20" as="geometry"/>
                </mxCell>
                <mxCell id="27" value="" style="edgeStyle=none;html=1;fontSize=6;" edge="1" parent="7" source="19" target="22">
                    <mxGeometry relative="1" as="geometry">
                        <Array as="points">
                            <mxPoint x="29.75" y="239"/>
                        </Array>
                    </mxGeometry>
                </mxCell>
                <mxCell id="19" value="" style="rhombus;whiteSpace=wrap;html=1;rounded=0;labelBorderColor=none;strokeColor=#000000;fontSize=6;fillColor=none;" vertex="1" parent="7">
                    <mxGeometry x="13.75" y="329" width="32" height="32" as="geometry"/>
                </mxCell>
                <mxCell id="26" value="" style="edgeStyle=none;html=1;fontSize=6;" edge="1" parent="7" source="20" target="19">
                    <mxGeometry relative="1" as="geometry"/>
                </mxCell>
                <mxCell id="20" value="Verifica logs" style="text;html=1;align=center;verticalAlign=middle;whiteSpace=wrap;rounded=1;fontSize=7;strokeColor=#000000;labelBorderColor=none;" vertex="1" parent="7">
                    <mxGeometry x="-56.25" y="334" width="51" height="20" as="geometry"/>
                </mxCell>
                <mxCell id="21" value="" style="ellipse;whiteSpace=wrap;html=1;aspect=fixed;rounded=0;labelBorderColor=none;strokeColor=#000000;fontSize=6;fillColor=none;" vertex="1" parent="7">
                    <mxGeometry x="364.25" y="329" width="27" height="27" as="geometry"/>
                </mxCell>
                <mxCell id="33" value="" style="edgeStyle=none;html=1;fontSize=6;" edge="1" parent="7" source="22" target="32">
                    <mxGeometry relative="1" as="geometry"/>
                </mxCell>
                <mxCell id="22" value="Logado" style="text;html=1;align=center;verticalAlign=middle;whiteSpace=wrap;rounded=1;fontSize=7;strokeColor=#000000;labelBorderColor=none;" vertex="1" parent="7">
                    <mxGeometry x="63.75" y="229" width="51" height="20" as="geometry"/>
                </mxCell>
                <mxCell id="43" style="edgeStyle=none;html=1;exitX=0;exitY=0.5;exitDx=0;exitDy=0;entryX=0.5;entryY=1;entryDx=0;entryDy=0;fontSize=6;" edge="1" parent="7" source="23" target="22">
                    <mxGeometry relative="1" as="geometry">
                        <Array as="points">
                            <mxPoint x="89.25" y="341.5"/>
                        </Array>
                    </mxGeometry>
                </mxCell>
                <mxCell id="54" value="" style="edgeStyle=none;html=1;fontSize=7;entryX=0;entryY=0.5;entryDx=0;entryDy=0;" edge="1" parent="7" source="23" target="45">
                    <mxGeometry relative="1" as="geometry"/>
                </mxCell>
                <mxCell id="23" value="" style="rhombus;whiteSpace=wrap;html=1;rounded=0;labelBorderColor=none;strokeColor=#000000;fontSize=6;fillColor=none;" vertex="1" parent="7">
                    <mxGeometry x="193.75" y="325.5" width="32" height="32" as="geometry"/>
                </mxCell>
                <mxCell id="28" style="edgeStyle=none;html=1;fontSize=6;entryX=0.5;entryY=1;entryDx=0;entryDy=0;exitX=0.5;exitY=1;exitDx=0;exitDy=0;" edge="1" parent="7" source="19" target="21">
                    <mxGeometry relative="1" as="geometry">
                        <mxPoint x="503.75" y="345" as="targetPoint"/>
                        <Array as="points">
                            <mxPoint x="30.25" y="388.5"/>
                            <mxPoint x="378.25" y="388.5"/>
                        </Array>
                    </mxGeometry>
                </mxCell>
                <mxCell id="29" value="&lt;span style=&quot;font-family: Helvetica; font-size: 7px; font-style: normal; font-variant-ligatures: normal; font-variant-caps: normal; font-weight: 700; letter-spacing: normal; orphans: 2; text-align: center; text-indent: 0px; text-transform: none; widows: 2; word-spacing: 0px; -webkit-text-stroke-width: 0px; text-decoration-thickness: initial; text-decoration-style: initial; text-decoration-color: initial; float: none; display: inline !important;&quot;&gt;Cadastro e senhas ok?&lt;br style=&quot;font-size: 7px;&quot;&gt;&lt;/span&gt;" style="text;html=1;rotation=0;fontSize=7;fillColor=none;labelBackgroundColor=none;fontColor=#000000;" vertex="1" parent="7">
                    <mxGeometry x="-5.25" y="357.5" width="85.25" height="20" as="geometry"/>
                </mxCell>
                <mxCell id="30" value="&lt;span style=&quot;font-family: Helvetica; font-size: 7px; font-style: normal; font-variant-ligatures: normal; font-variant-caps: normal; font-weight: 700; letter-spacing: normal; orphans: 2; text-align: center; text-indent: 0px; text-transform: none; widows: 2; word-spacing: 0px; -webkit-text-stroke-width: 0px; text-decoration-thickness: initial; text-decoration-style: initial; text-decoration-color: initial; float: none; display: inline !important;&quot;&gt;sim&lt;br style=&quot;font-size: 7px;&quot;&gt;&lt;/span&gt;" style="text;html=1;rotation=0;fontSize=7;fillColor=none;labelBackgroundColor=none;fontColor=#000000;" vertex="1" parent="7">
                    <mxGeometry x="13.75" y="309" width="74" height="20" as="geometry"/>
                </mxCell>
                <mxCell id="31" value="&lt;span style=&quot;font-family: Helvetica; font-size: 7px; font-style: normal; font-variant-ligatures: normal; font-variant-caps: normal; font-weight: 700; letter-spacing: normal; orphans: 2; text-align: center; text-indent: 0px; text-transform: none; widows: 2; word-spacing: 0px; -webkit-text-stroke-width: 0px; text-decoration-thickness: initial; text-decoration-style: initial; text-decoration-color: initial; float: none; display: inline !important;&quot;&gt;não&lt;br style=&quot;font-size: 7px;&quot;&gt;&lt;/span&gt;" style="text;html=1;rotation=0;fontSize=7;fillColor=none;labelBackgroundColor=none;fontColor=#000000;" vertex="1" parent="7">
                    <mxGeometry x="40.75" y="388.25" width="74" height="20" as="geometry"/>
                </mxCell>
                <mxCell id="42" style="edgeStyle=none;html=1;entryX=0.5;entryY=0;entryDx=0;entryDy=0;fontSize=6;" edge="1" parent="7" source="32" target="23">
                    <mxGeometry relative="1" as="geometry">
                        <Array as="points">
                            <mxPoint x="169.25" y="298.5"/>
                            <mxPoint x="210.25" y="298.5"/>
                        </Array>
                    </mxGeometry>
                </mxCell>
                <mxCell id="32" value="Posta posts" style="text;html=1;align=center;verticalAlign=middle;whiteSpace=wrap;rounded=1;fontSize=7;strokeColor=#000000;labelBorderColor=none;" vertex="1" parent="7">
                    <mxGeometry x="143.75" y="229" width="51" height="20" as="geometry"/>
                </mxCell>
                <mxCell id="10" value="" style="endArrow=none;html=1;entryX=0.5;entryY=1;entryDx=0;entryDy=0;" edge="1" parent="7" target="7">
                    <mxGeometry width="50" height="50" relative="1" as="geometry">
                        <mxPoint x="-111.75" y="293.25" as="sourcePoint"/>
                        <mxPoint x="528.75" y="293.2499999999999" as="targetPoint"/>
                    </mxGeometry>
                </mxCell>
                <mxCell id="41" value="&lt;span style=&quot;font-family: Helvetica; font-size: 7px; font-style: normal; font-variant-ligatures: normal; font-variant-caps: normal; font-weight: 700; letter-spacing: normal; orphans: 2; text-align: center; text-indent: 0px; text-transform: none; widows: 2; word-spacing: 0px; -webkit-text-stroke-width: 0px; text-decoration-thickness: initial; text-decoration-style: initial; text-decoration-color: initial; float: none; display: inline !important;&quot;&gt;Ganha medalhas?&lt;br style=&quot;font-size: 7px;&quot;&gt;&lt;/span&gt;" style="text;html=1;rotation=0;fontSize=7;fillColor=none;labelBackgroundColor=none;fontColor=#000000;" vertex="1" parent="7">
                    <mxGeometry x="184.25" y="354" width="74" height="20" as="geometry"/>
                </mxCell>
                <mxCell id="44" value="&lt;span style=&quot;font-family: Helvetica; font-size: 7px; font-style: normal; font-variant-ligatures: normal; font-variant-caps: normal; font-weight: 700; letter-spacing: normal; orphans: 2; text-align: center; text-indent: 0px; text-transform: none; widows: 2; word-spacing: 0px; -webkit-text-stroke-width: 0px; text-decoration-thickness: initial; text-decoration-style: initial; text-decoration-color: initial; float: none; display: inline !important;&quot;&gt;não&lt;br style=&quot;font-size: 7px;&quot;&gt;&lt;/span&gt;" style="text;html=1;rotation=0;fontSize=7;fillColor=none;labelBackgroundColor=none;fontColor=#000000;" vertex="1" parent="7">
                    <mxGeometry x="172.75" y="325.5" width="19" height="20" as="geometry"/>
                </mxCell>
                <mxCell id="48" style="edgeStyle=none;html=1;entryX=0.5;entryY=0;entryDx=0;entryDy=0;fontSize=6;" edge="1" parent="7" source="45" target="22">
                    <mxGeometry relative="1" as="geometry">
                        <Array as="points">
                            <mxPoint x="294.25" y="198.5"/>
                            <mxPoint x="89.25" y="198.5"/>
                        </Array>
                    </mxGeometry>
                </mxCell>
                <mxCell id="45" value="Notificação" style="text;html=1;align=center;verticalAlign=middle;whiteSpace=wrap;rounded=1;fontSize=7;strokeColor=#000000;labelBorderColor=none;" vertex="1" parent="7">
                    <mxGeometry x="268.25" y="332.5" width="51" height="20" as="geometry"/>
                </mxCell>
                <mxCell id="51" value="" style="edgeStyle=none;html=1;fontSize=6;" edge="1" parent="7" source="50">
                    <mxGeometry relative="1" as="geometry">
                        <mxPoint x="374.25" y="328.5" as="targetPoint"/>
                        <Array as="points">
                            <mxPoint x="350.25" y="278.5"/>
                            <mxPoint x="374.25" y="278.5"/>
                        </Array>
                    </mxGeometry>
                </mxCell>
                <mxCell id="50" value="Solicita logoff" style="text;html=1;align=center;verticalAlign=middle;whiteSpace=wrap;rounded=1;fontSize=7;strokeColor=#000000;labelBorderColor=none;" vertex="1" parent="7">
                    <mxGeometry x="324.25" y="215.5" width="51" height="20" as="geometry"/>
                </mxCell>
                <mxCell id="49" style="edgeStyle=none;html=1;fontSize=6;exitX=0.25;exitY=0;exitDx=0;exitDy=0;" edge="1" parent="7" source="22" target="50">
                    <mxGeometry relative="1" as="geometry">
                        <mxPoint x="324.25" y="228.5" as="targetPoint"/>
                        <Array as="points">
                            <mxPoint x="76.25" y="178.5"/>
                            <mxPoint x="350.25" y="178.5"/>
                        </Array>
                    </mxGeometry>
                </mxCell>
                <mxCell id="53" value="&lt;span style=&quot;font-family: Helvetica; font-size: 7px; font-style: normal; font-variant-ligatures: normal; font-variant-caps: normal; font-weight: 700; letter-spacing: normal; orphans: 2; text-align: center; text-indent: 0px; text-transform: none; widows: 2; word-spacing: 0px; -webkit-text-stroke-width: 0px; text-decoration-thickness: initial; text-decoration-style: initial; text-decoration-color: initial; float: none; display: inline !important;&quot;&gt;sim&lt;br style=&quot;font-size: 7px;&quot;&gt;&lt;/span&gt;" style="text;html=1;rotation=0;fontSize=7;fillColor=none;labelBackgroundColor=none;fontColor=#000000;" vertex="1" parent="7">
                    <mxGeometry x="238.25" y="325.5" width="74" height="20" as="geometry"/>
                </mxCell>
                <mxCell id="55" value="&lt;span style=&quot;font-family: Helvetica; font-size: 7px; font-style: normal; font-variant-ligatures: normal; font-variant-caps: normal; font-weight: 700; letter-spacing: normal; orphans: 2; text-align: center; text-indent: 0px; text-transform: none; widows: 2; word-spacing: 0px; -webkit-text-stroke-width: 0px; text-decoration-thickness: initial; text-decoration-style: initial; text-decoration-color: initial; float: none; display: inline !important;&quot;&gt;Post arquivado&lt;br style=&quot;font-size: 7px;&quot;&gt;&lt;/span&gt;" style="text;html=1;rotation=0;fontSize=7;fillColor=none;labelBackgroundColor=none;fontColor=#000000;" vertex="1" parent="7">
                    <mxGeometry x="172.75" y="298.25" width="74" height="20" as="geometry"/>
                </mxCell>
            </root>
        </mxGraphModel>
    </diagram>
</mxfile>